<?xml version="1.0" encoding="utf-8" standalone="no"?>
<!DOCTYPE svg PUBLIC "-//W3C//DTD SVG 1.1//EN"
  "http://www.w3.org/Graphics/SVG/1.1/DTD/svg11.dtd">
<svg xmlns:xlink="http://www.w3.org/1999/xlink" width="523.833867pt" height="272.682359pt" viewBox="0 0 523.833867 272.682359" xmlns="http://www.w3.org/2000/svg" version="1.1">
 <metadata>
  <rdf:RDF xmlns:dc="http://purl.org/dc/elements/1.1/" xmlns:cc="http://creativecommons.org/ns#" xmlns:rdf="http://www.w3.org/1999/02/22-rdf-syntax-ns#">
   <cc:Work>
    <dc:type rdf:resource="http://purl.org/dc/dcmitype/StillImage"/>
    <dc:date>2026-08-24T14:53:46.956648</dc:date>
    <dc:format>image/svg+xml</dc:format>
    <dc:creator>
     <cc:Agent>
      <dc:title>Matplotlib v3.11.1, https://matplotlib.org/</dc:title>
     </cc:Agent>
    </dc:creator>
   </cc:Work>
  </rdf:RDF>
 </metadata>
 <defs>
  <style type="text/css">*{stroke-linejoin: round; stroke-linecap: butt}</style>
 </defs>
 <g id="figure_1">
  <g id="patch_1">
   <path d="M 0 272.682359 
L 523.833867 272.682359 
L 523.833867 0 
L 0 0 
z
" style="fill: #fcfcfb"/>
  </g>
  <g id="axes_1">
   <g id="patch_2">
    <path d="M 42.333867 252.482359 
L 516.633867 252.482359 
L 516.633867 25.178359 
L 42.333867 25.178359 
z
" style="fill: #fcfcfb"/>
   </g>
   <g id="matplotlib.axis_1">
    <g id="xtick_1">
     <g id="line2d_1"/>
     <g id="text_1">
      <!-- 2016 -->
      <g style="fill: #52514e" transform="translate(83.674169 263.200133) scale(0.095 -0.095)">
       <defs>
        <path id="DejaVuSans-15" d="M 1228 531 
L 3431 531 
L 3431 0 
L 469 0 
L 469 531 
Q 828 903 1448 1529 
Q 2069 2156 2228 2338 
Q 2531 2678 2651 2914 
Q 2772 3150 2772 3378 
Q 2772 3750 2511 3984 
Q 2250 4219 1831 4219 
Q 1534 4219 1204 4116 
Q 875 4013 500 3803 
L 500 4441 
Q 881 4594 1212 4672 
Q 1544 4750 1819 4750 
Q 2544 4750 2975 4387 
Q 3406 4025 3406 3419 
Q 3406 3131 3298 2873 
Q 3191 2616 2906 2266 
Q 2828 2175 2409 1742 
Q 1991 1309 1228 531 
z
" transform="scale(0.015625)"/>
        <path id="DejaVuSans-13" d="M 2034 4250 
Q 1547 4250 1301 3770 
Q 1056 3291 1056 2328 
Q 1056 1369 1301 889 
Q 1547 409 2034 409 
Q 2525 409 2770 889 
Q 3016 1369 3016 2328 
Q 3016 3291 2770 3770 
Q 2525 4250 2034 4250 
z
M 2034 4750 
Q 2819 4750 3233 4129 
Q 3647 3509 3647 2328 
Q 3647 1150 3233 529 
Q 2819 -91 2034 -91 
Q 1250 -91 836 529 
Q 422 1150 422 2328 
Q 422 3509 836 4129 
Q 1250 4750 2034 4750 
z
" transform="scale(0.015625)"/>
        <path id="DejaVuSans-14" d="M 794 531 
L 1825 531 
L 1825 4091 
L 703 3866 
L 703 4441 
L 1819 4666 
L 2450 4666 
L 2450 531 
L 3481 531 
L 3481 0 
L 794 0 
L 794 531 
z
" transform="scale(0.015625)"/>
        <path id="DejaVuSans-19" d="M 2113 2584 
Q 1688 2584 1439 2293 
Q 1191 2003 1191 1497 
Q 1191 994 1439 701 
Q 1688 409 2113 409 
Q 2538 409 2786 701 
Q 3034 994 3034 1497 
Q 3034 2003 2786 2293 
Q 2538 2584 2113 2584 
z
M 3366 4563 
L 3366 3988 
Q 3128 4100 2886 4159 
Q 2644 4219 2406 4219 
Q 1781 4219 1451 3797 
Q 1122 3375 1075 2522 
Q 1259 2794 1537 2939 
Q 1816 3084 2150 3084 
Q 2853 3084 3261 2657 
Q 3669 2231 3669 1497 
Q 3669 778 3244 343 
Q 2819 -91 2113 -91 
Q 1303 -91 875 529 
Q 447 1150 447 2328 
Q 447 3434 972 4092 
Q 1497 4750 2381 4750 
Q 2619 4750 2861 4703 
Q 3103 4656 3366 4563 
z
" transform="scale(0.015625)"/>
       </defs>
       <use xlink:href="#DejaVuSans-15"/>
       <use xlink:href="#DejaVuSans-13" transform="translate(63.625 0)"/>
       <use xlink:href="#DejaVuSans-14" transform="translate(127.25 0)"/>
       <use xlink:href="#DejaVuSans-19" transform="translate(190.875 0)"/>
      </g>
     </g>
    </g>
    <g id="xtick_2">
     <g id="line2d_2"/>
     <g id="text_2">
      <!-- 2018 -->
      <g style="fill: #52514e" transform="translate(159.807963 263.200133) scale(0.095 -0.095)">
       <defs>
        <path id="DejaVuSans-1b" d="M 2034 2216 
Q 1584 2216 1326 1975 
Q 1069 1734 1069 1313 
Q 1069 891 1326 650 
Q 1584 409 2034 409 
Q 2484 409 2743 651 
Q 3003 894 3003 1313 
Q 3003 1734 2745 1975 
Q 2488 2216 2034 2216 
z
M 1403 2484 
Q 997 2584 770 2862 
Q 544 3141 544 3541 
Q 544 4100 942 4425 
Q 1341 4750 2034 4750 
Q 2731 4750 3128 4425 
Q 3525 4100 3525 3541 
Q 3525 3141 3298 2862 
Q 3072 2584 2669 2484 
Q 3125 2378 3379 2068 
Q 3634 1759 3634 1313 
Q 3634 634 3220 271 
Q 2806 -91 2034 -91 
Q 1263 -91 848 271 
Q 434 634 434 1313 
Q 434 1759 690 2068 
Q 947 2378 1403 2484 
z
M 1172 3481 
Q 1172 3119 1398 2916 
Q 1625 2713 2034 2713 
Q 2441 2713 2670 2916 
Q 2900 3119 2900 3481 
Q 2900 3844 2670 4047 
Q 2441 4250 2034 4250 
Q 1625 4250 1398 4047 
Q 1172 3844 1172 3481 
z
" transform="scale(0.015625)"/>
       </defs>
       <use xlink:href="#DejaVuSans-15"/>
       <use xlink:href="#DejaVuSans-13" transform="translate(63.625 0)"/>
       <use xlink:href="#DejaVuSans-14" transform="translate(127.25 0)"/>
       <use xlink:href="#DejaVuSans-1b" transform="translate(190.875 0)"/>
      </g>
     </g>
    </g>
    <g id="xtick_3">
     <g id="line2d_3"/>
     <g id="text_3">
      <!-- 2020 -->
      <g style="fill: #52514e" transform="translate(235.837607 263.200133) scale(0.095 -0.095)">
       <use xlink:href="#DejaVuSans-15"/>
       <use xlink:href="#DejaVuSans-13" transform="translate(63.625 0)"/>
       <use xlink:href="#DejaVuSans-15" transform="translate(127.25 0)"/>
       <use xlink:href="#DejaVuSans-13" transform="translate(190.875 0)"/>
      </g>
     </g>
    </g>
    <g id="xtick_4">
     <g id="line2d_4"/>
     <g id="text_4">
      <!-- 2022 -->
      <g style="fill: #52514e" transform="translate(311.971402 263.200133) scale(0.095 -0.095)">
       <use xlink:href="#DejaVuSans-15"/>
       <use xlink:href="#DejaVuSans-13" transform="translate(63.625 0)"/>
       <use xlink:href="#DejaVuSans-15" transform="translate(127.25 0)"/>
       <use xlink:href="#DejaVuSans-15" transform="translate(190.875 0)"/>
      </g>
     </g>
    </g>
    <g id="xtick_5">
     <g id="line2d_5"/>
     <g id="text_5">
      <!-- 2024 -->
      <g style="fill: #52514e" transform="translate(388.001046 263.200133) scale(0.095 -0.095)">
       <defs>
        <path id="DejaVuSans-17" d="M 2419 4116 
L 825 1625 
L 2419 1625 
L 2419 4116 
z
M 2253 4666 
L 3047 4666 
L 3047 1625 
L 3713 1625 
L 3713 1100 
L 3047 1100 
L 3047 0 
L 2419 0 
L 2419 1100 
L 313 1100 
L 313 1709 
L 2253 4666 
z
" transform="scale(0.015625)"/>
       </defs>
       <use xlink:href="#DejaVuSans-15"/>
       <use xlink:href="#DejaVuSans-13" transform="translate(63.625 0)"/>
       <use xlink:href="#DejaVuSans-15" transform="translate(127.25 0)"/>
       <use xlink:href="#DejaVuSans-17" transform="translate(190.875 0)"/>
      </g>
     </g>
    </g>
    <g id="xtick_6">
     <g id="line2d_6"/>
     <g id="text_6">
      <!-- 2026 -->
      <g style="fill: #52514e" transform="translate(464.134841 263.200133) scale(0.095 -0.095)">
       <use xlink:href="#DejaVuSans-15"/>
       <use xlink:href="#DejaVuSans-13" transform="translate(63.625 0)"/>
       <use xlink:href="#DejaVuSans-15" transform="translate(127.25 0)"/>
       <use xlink:href="#DejaVuSans-19" transform="translate(190.875 0)"/>
      </g>
     </g>
    </g>
   </g>
   <g id="matplotlib.axis_2">
    <g id="ytick_1">
     <g id="line2d_7">
      <path d="M 42.333867 252.482359 
L 516.633867 252.482359 
" clip-path="url(#p2b52afac71)" style="fill: none; stroke: #e6e5e1; stroke-width: 0.8; stroke-linecap: round"/>
     </g>
     <g id="line2d_8"/>
     <g id="text_7">
      <!-- 0 -->
      <g style="fill: #52514e" transform="translate(32.789492 256.091246) scale(0.095 -0.095)">
       <use xlink:href="#DejaVuSans-13"/>
      </g>
     </g>
    </g>
    <g id="ytick_2">
     <g id="line2d_9">
      <path d="M 42.333867 225.099555 
L 516.633867 225.099555 
" clip-path="url(#p2b52afac71)" style="fill: none; stroke: #e6e5e1; stroke-width: 0.8; stroke-linecap: round"/>
     </g>
     <g id="line2d_10"/>
     <g id="text_8">
      <!-- 25 -->
      <g style="fill: #52514e" transform="translate(26.745117 228.708442) scale(0.095 -0.095)">
       <defs>
        <path id="DejaVuSans-18" d="M 691 4666 
L 3169 4666 
L 3169 4134 
L 1269 4134 
L 1269 2991 
Q 1406 3038 1543 3061 
Q 1681 3084 1819 3084 
Q 2600 3084 3056 2656 
Q 3513 2228 3513 1497 
Q 3513 744 3044 326 
Q 2575 -91 1722 -91 
Q 1428 -91 1123 -41 
Q 819 9 494 109 
L 494 744 
Q 775 591 1075 516 
Q 1375 441 1709 441 
Q 2250 441 2565 725 
Q 2881 1009 2881 1497 
Q 2881 1984 2565 2268 
Q 2250 2553 1709 2553 
Q 1456 2553 1204 2497 
Q 953 2441 691 2322 
L 691 4666 
z
" transform="scale(0.015625)"/>
       </defs>
       <use xlink:href="#DejaVuSans-15"/>
       <use xlink:href="#DejaVuSans-18" transform="translate(63.625 0)"/>
      </g>
     </g>
    </g>
    <g id="ytick_3">
     <g id="line2d_11">
      <path d="M 42.333867 197.716751 
L 516.633867 197.716751 
" clip-path="url(#p2b52afac71)" style="fill: none; stroke: #e6e5e1; stroke-width: 0.8; stroke-linecap: round"/>
     </g>
     <g id="line2d_12"/>
     <g id="text_9">
      <!-- 50 -->
      <g style="fill: #52514e" transform="translate(26.745117 201.325638) scale(0.095 -0.095)">
       <use xlink:href="#DejaVuSans-18"/>
       <use xlink:href="#DejaVuSans-13" transform="translate(63.625 0)"/>
      </g>
     </g>
    </g>
    <g id="ytick_4">
     <g id="line2d_13">
      <path d="M 42.333867 170.333947 
L 516.633867 170.333947 
" clip-path="url(#p2b52afac71)" style="fill: none; stroke: #e6e5e1; stroke-width: 0.8; stroke-linecap: round"/>
     </g>
     <g id="line2d_14"/>
     <g id="text_10">
      <!-- 75 -->
      <g style="fill: #52514e" transform="translate(26.745117 173.942834) scale(0.095 -0.095)">
       <defs>
        <path id="DejaVuSans-1a" d="M 525 4666 
L 3525 4666 
L 3525 4397 
L 1831 0 
L 1172 0 
L 2766 4134 
L 525 4134 
L 525 4666 
z
" transform="scale(0.015625)"/>
       </defs>
       <use xlink:href="#DejaVuSans-1a"/>
       <use xlink:href="#DejaVuSans-18" transform="translate(63.625 0)"/>
      </g>
     </g>
    </g>
    <g id="ytick_5">
     <g id="line2d_15">
      <path d="M 42.333867 142.951143 
L 516.633867 142.951143 
" clip-path="url(#p2b52afac71)" style="fill: none; stroke: #e6e5e1; stroke-width: 0.8; stroke-linecap: round"/>
     </g>
     <g id="line2d_16"/>
     <g id="text_11">
      <!-- 100 -->
      <g style="fill: #52514e" transform="translate(20.700742 146.56003) scale(0.095 -0.095)">
       <use xlink:href="#DejaVuSans-14"/>
       <use xlink:href="#DejaVuSans-13" transform="translate(63.625 0)"/>
       <use xlink:href="#DejaVuSans-13" transform="translate(127.25 0)"/>
      </g>
     </g>
    </g>
    <g id="ytick_6">
     <g id="line2d_17">
      <path d="M 42.333867 115.568339 
L 516.633867 115.568339 
" clip-path="url(#p2b52afac71)" style="fill: none; stroke: #e6e5e1; stroke-width: 0.8; stroke-linecap: round"/>
     </g>
     <g id="line2d_18"/>
     <g id="text_12">
      <!-- 125 -->
      <g style="fill: #52514e" transform="translate(20.700742 119.177225) scale(0.095 -0.095)">
       <use xlink:href="#DejaVuSans-14"/>
       <use xlink:href="#DejaVuSans-15" transform="translate(63.625 0)"/>
       <use xlink:href="#DejaVuSans-18" transform="translate(127.25 0)"/>
      </g>
     </g>
    </g>
    <g id="ytick_7">
     <g id="line2d_19">
      <path d="M 42.333867 88.185535 
L 516.633867 88.185535 
" clip-path="url(#p2b52afac71)" style="fill: none; stroke: #e6e5e1; stroke-width: 0.8; stroke-linecap: round"/>
     </g>
     <g id="line2d_20"/>
     <g id="text_13">
      <!-- 150 -->
      <g style="fill: #52514e" transform="translate(20.700742 91.794421) scale(0.095 -0.095)">
       <use xlink:href="#DejaVuSans-14"/>
       <use xlink:href="#DejaVuSans-18" transform="translate(63.625 0)"/>
       <use xlink:href="#DejaVuSans-13" transform="translate(127.25 0)"/>
      </g>
     </g>
    </g>
    <g id="ytick_8">
     <g id="line2d_21">
      <path d="M 42.333867 60.80273 
L 516.633867 60.80273 
" clip-path="url(#p2b52afac71)" style="fill: none; stroke: #e6e5e1; stroke-width: 0.8; stroke-linecap: round"/>
     </g>
     <g id="line2d_22"/>
     <g id="text_14">
      <!-- 175 -->
      <g style="fill: #52514e" transform="translate(20.700742 64.411617) scale(0.095 -0.095)">
       <use xlink:href="#DejaVuSans-14"/>
       <use xlink:href="#DejaVuSans-1a" transform="translate(63.625 0)"/>
       <use xlink:href="#DejaVuSans-18" transform="translate(127.25 0)"/>
      </g>
     </g>
    </g>
    <g id="ytick_9">
     <g id="line2d_23">
      <path d="M 42.333867 33.419926 
L 516.633867 33.419926 
" clip-path="url(#p2b52afac71)" style="fill: none; stroke: #e6e5e1; stroke-width: 0.8; stroke-linecap: round"/>
     </g>
     <g id="line2d_24"/>
     <g id="text_15">
      <!-- 200 -->
      <g style="fill: #52514e" transform="translate(20.700742 37.028813) scale(0.095 -0.095)">
       <use xlink:href="#DejaVuSans-15"/>
       <use xlink:href="#DejaVuSans-13" transform="translate(63.625 0)"/>
       <use xlink:href="#DejaVuSans-13" transform="translate(127.25 0)"/>
      </g>
     </g>
    </g>
    <g id="text_16">
     <!-- miles de reclamos por mes -->
     <g style="fill: #52514e" transform="translate(14.418516 202.9895) rotate(-90) scale(0.095 -0.095)">
      <defs>
       <path id="DejaVuSans-50" d="M 3328 2828 
Q 3544 3216 3844 3400 
Q 4144 3584 4550 3584 
Q 5097 3584 5394 3201 
Q 5691 2819 5691 2113 
L 5691 0 
L 5113 0 
L 5113 2094 
Q 5113 2597 4934 2840 
Q 4756 3084 4391 3084 
Q 3944 3084 3684 2787 
Q 3425 2491 3425 1978 
L 3425 0 
L 2847 0 
L 2847 2094 
Q 2847 2600 2669 2842 
Q 2491 3084 2119 3084 
Q 1678 3084 1418 2786 
Q 1159 2488 1159 1978 
L 1159 0 
L 581 0 
L 581 3500 
L 1159 3500 
L 1159 2956 
Q 1356 3278 1631 3431 
Q 1906 3584 2284 3584 
Q 2666 3584 2933 3390 
Q 3200 3197 3328 2828 
z
" transform="scale(0.015625)"/>
       <path id="DejaVuSans-4c" d="M 603 3500 
L 1178 3500 
L 1178 0 
L 603 0 
L 603 3500 
z
M 603 4863 
L 1178 4863 
L 1178 4134 
L 603 4134 
L 603 4863 
z
" transform="scale(0.015625)"/>
       <path id="DejaVuSans-4f" d="M 603 4863 
L 1178 4863 
L 1178 0 
L 603 0 
L 603 4863 
z
" transform="scale(0.015625)"/>
       <path id="DejaVuSans-48" d="M 3597 1894 
L 3597 1613 
L 953 1613 
Q 991 1019 1311 708 
Q 1631 397 2203 397 
Q 2534 397 2845 478 
Q 3156 559 3463 722 
L 3463 178 
Q 3153 47 2828 -22 
Q 2503 -91 2169 -91 
Q 1331 -91 842 396 
Q 353 884 353 1716 
Q 353 2575 817 3079 
Q 1281 3584 2069 3584 
Q 2775 3584 3186 3129 
Q 3597 2675 3597 1894 
z
M 3022 2063 
Q 3016 2534 2758 2815 
Q 2500 3097 2075 3097 
Q 1594 3097 1305 2825 
Q 1016 2553 972 2059 
L 3022 2063 
z
" transform="scale(0.015625)"/>
       <path id="DejaVuSans-56" d="M 2834 3397 
L 2834 2853 
Q 2591 2978 2328 3040 
Q 2066 3103 1784 3103 
Q 1356 3103 1142 2972 
Q 928 2841 928 2578 
Q 928 2378 1081 2264 
Q 1234 2150 1697 2047 
L 1894 2003 
Q 2506 1872 2764 1633 
Q 3022 1394 3022 966 
Q 3022 478 2636 193 
Q 2250 -91 1575 -91 
Q 1294 -91 989 -36 
Q 684 19 347 128 
L 347 722 
Q 666 556 975 473 
Q 1284 391 1588 391 
Q 1994 391 2212 530 
Q 2431 669 2431 922 
Q 2431 1156 2273 1281 
Q 2116 1406 1581 1522 
L 1381 1569 
Q 847 1681 609 1914 
Q 372 2147 372 2553 
Q 372 3047 722 3315 
Q 1072 3584 1716 3584 
Q 2034 3584 2315 3537 
Q 2597 3491 2834 3397 
z
" transform="scale(0.015625)"/>
       <path id="DejaVuSans-3" transform="scale(0.015625)"/>
       <path id="DejaVuSans-47" d="M 2906 2969 
L 2906 4863 
L 3481 4863 
L 3481 0 
L 2906 0 
L 2906 525 
Q 2725 213 2448 61 
Q 2172 -91 1784 -91 
Q 1150 -91 751 415 
Q 353 922 353 1747 
Q 353 2572 751 3078 
Q 1150 3584 1784 3584 
Q 2172 3584 2448 3432 
Q 2725 3281 2906 2969 
z
M 947 1747 
Q 947 1113 1208 752 
Q 1469 391 1925 391 
Q 2381 391 2643 752 
Q 2906 1113 2906 1747 
Q 2906 2381 2643 2742 
Q 2381 3103 1925 3103 
Q 1469 3103 1208 2742 
Q 947 2381 947 1747 
z
" transform="scale(0.015625)"/>
       <path id="DejaVuSans-55" d="M 2631 2963 
Q 2534 3019 2420 3045 
Q 2306 3072 2169 3072 
Q 1681 3072 1420 2755 
Q 1159 2438 1159 1844 
L 1159 0 
L 581 0 
L 581 3500 
L 1159 3500 
L 1159 2956 
Q 1341 3275 1631 3429 
Q 1922 3584 2338 3584 
Q 2397 3584 2469 3576 
Q 2541 3569 2628 3553 
L 2631 2963 
z
" transform="scale(0.015625)"/>
       <path id="DejaVuSans-46" d="M 3122 3366 
L 3122 2828 
Q 2878 2963 2633 3030 
Q 2388 3097 2138 3097 
Q 1578 3097 1268 2742 
Q 959 2388 959 1747 
Q 959 1106 1268 751 
Q 1578 397 2138 397 
Q 2388 397 2633 464 
Q 2878 531 3122 666 
L 3122 134 
Q 2881 22 2623 -34 
Q 2366 -91 2075 -91 
Q 1284 -91 818 406 
Q 353 903 353 1747 
Q 353 2603 823 3093 
Q 1294 3584 2113 3584 
Q 2378 3584 2631 3529 
Q 2884 3475 3122 3366 
z
" transform="scale(0.015625)"/>
       <path id="DejaVuSans-44" d="M 2194 1759 
Q 1497 1759 1228 1600 
Q 959 1441 959 1056 
Q 959 750 1161 570 
Q 1363 391 1709 391 
Q 2188 391 2477 730 
Q 2766 1069 2766 1631 
L 2766 1759 
L 2194 1759 
z
M 3341 1997 
L 3341 0 
L 2766 0 
L 2766 531 
Q 2569 213 2275 61 
Q 1981 -91 1556 -91 
Q 1019 -91 701 211 
Q 384 513 384 1019 
Q 384 1609 779 1909 
Q 1175 2209 1959 2209 
L 2766 2209 
L 2766 2266 
Q 2766 2663 2505 2880 
Q 2244 3097 1772 3097 
Q 1472 3097 1187 3025 
Q 903 2953 641 2809 
L 641 3341 
Q 956 3463 1253 3523 
Q 1550 3584 1831 3584 
Q 2591 3584 2966 3190 
Q 3341 2797 3341 1997 
z
" transform="scale(0.015625)"/>
       <path id="DejaVuSans-52" d="M 1959 3097 
Q 1497 3097 1228 2736 
Q 959 2375 959 1747 
Q 959 1119 1226 758 
Q 1494 397 1959 397 
Q 2419 397 2687 759 
Q 2956 1122 2956 1747 
Q 2956 2369 2687 2733 
Q 2419 3097 1959 3097 
z
M 1959 3584 
Q 2709 3584 3137 3096 
Q 3566 2609 3566 1747 
Q 3566 888 3137 398 
Q 2709 -91 1959 -91 
Q 1206 -91 779 398 
Q 353 888 353 1747 
Q 353 2609 779 3096 
Q 1206 3584 1959 3584 
z
" transform="scale(0.015625)"/>
       <path id="DejaVuSans-53" d="M 1159 525 
L 1159 -1331 
L 581 -1331 
L 581 3500 
L 1159 3500 
L 1159 2969 
Q 1341 3281 1617 3432 
Q 1894 3584 2278 3584 
Q 2916 3584 3314 3078 
Q 3713 2572 3713 1747 
Q 3713 922 3314 415 
Q 2916 -91 2278 -91 
Q 1894 -91 1617 61 
Q 1341 213 1159 525 
z
M 3116 1747 
Q 3116 2381 2855 2742 
Q 2594 3103 2138 3103 
Q 1681 3103 1420 2742 
Q 1159 2381 1159 1747 
Q 1159 1113 1420 752 
Q 1681 391 2138 391 
Q 2594 391 2855 752 
Q 3116 1113 3116 1747 
z
" transform="scale(0.015625)"/>
      </defs>
      <use xlink:href="#DejaVuSans-50"/>
      <use xlink:href="#DejaVuSans-4c" transform="translate(97.40625 0)"/>
      <use xlink:href="#DejaVuSans-4f" transform="translate(125.1875 0)"/>
      <use xlink:href="#DejaVuSans-48" transform="translate(152.96875 0)"/>
      <use xlink:href="#DejaVuSans-56" transform="translate(214.5 0)"/>
      <use xlink:href="#DejaVuSans-3" transform="translate(266.59375 0)"/>
      <use xlink:href="#DejaVuSans-47" transform="translate(298.375 0)"/>
      <use xlink:href="#DejaVuSans-48" transform="translate(361.859375 0)"/>
      <use xlink:href="#DejaVuSans-3" transform="translate(423.390625 0)"/>
      <use xlink:href="#DejaVuSans-55" transform="translate(455.171875 0)"/>
      <use xlink:href="#DejaVuSans-48" transform="translate(494.078125 0)"/>
      <use xlink:href="#DejaVuSans-46" transform="translate(555.609375 0)"/>
      <use xlink:href="#DejaVuSans-4f" transform="translate(610.59375 0)"/>
      <use xlink:href="#DejaVuSans-44" transform="translate(638.375 0)"/>
      <use xlink:href="#DejaVuSans-50" transform="translate(699.65625 0)"/>
      <use xlink:href="#DejaVuSans-52" transform="translate(797.0625 0)"/>
      <use xlink:href="#DejaVuSans-56" transform="translate(858.25 0)"/>
      <use xlink:href="#DejaVuSans-3" transform="translate(910.34375 0)"/>
      <use xlink:href="#DejaVuSans-53" transform="translate(942.125 0)"/>
      <use xlink:href="#DejaVuSans-52" transform="translate(1005.609375 0)"/>
      <use xlink:href="#DejaVuSans-55" transform="translate(1066.796875 0)"/>
      <use xlink:href="#DejaVuSans-3" transform="translate(1107.90625 0)"/>
      <use xlink:href="#DejaVuSans-50" transform="translate(1139.6875 0)"/>
      <use xlink:href="#DejaVuSans-48" transform="translate(1237.09375 0)"/>
      <use xlink:href="#DejaVuSans-56" transform="translate(1298.625 0)"/>
     </g>
    </g>
   </g>
   <g id="patch_3">
    <path d="M 476.223591 252.482359 
L 495.074776 252.482359 
L 495.074776 25.178359 
L 476.223591 25.178359 
z
" clip-path="url(#p2b52afac71)" style="fill: #d03b3b; opacity: 0.07; stroke: #d03b3b; stroke-linejoin: miter"/>
   </g>
   <g id="FillBetweenPolyCollection_1">
    <defs>
     <path id="m5e91a28c6b" d="M 63.892958 -20.2 
L 63.892958 -22.801366 
L 67.121614 -26.088398 
L 70.24612 -26.380847 
L 73.474776 -26.666723 
L 76.599282 -27.458634 
L 79.827938 -27.266954 
L 83.056594 -26.507903 
L 86.1811 -27.054464 
L 89.409757 -25.825523 
L 92.534262 -25.887956 
L 95.762919 -26.387418 
L 98.991575 -26.309651 
L 102.01193 -27.21657 
L 105.240587 -27.004079 
L 108.365092 -26.982173 
L 111.593749 -27.135517 
L 114.718255 -27.386343 
L 117.946911 -27.961382 
L 121.175567 -28.397316 
L 124.300073 -28.459749 
L 127.528729 -26.925217 
L 130.653235 -27.412631 
L 133.881891 -30.575892 
L 137.110547 -28.58571 
L 140.026753 -29.468532 
L 143.255409 -29.552871 
L 146.379915 -30.820147 
L 149.608571 -30.258252 
L 152.733077 -31.177219 
L 155.961733 -31.498145 
L 159.190389 -35.094055 
L 162.314895 -31.092879 
L 165.543551 -30.261538 
L 168.668057 -30.316303 
L 171.896713 -32.757754 
L 175.125369 -31.70954 
L 178.041575 -32.400682 
L 181.270231 -31.878218 
L 184.394737 -31.579198 
L 187.623393 -30.099431 
L 190.747899 -30.596703 
L 193.976555 -30.970205 
L 197.205211 -29.333808 
L 200.329717 -31.206792 
L 203.558373 -29.871606 
L 206.682879 -29.673355 
L 209.911535 -29.543013 
L 213.140191 -30.724855 
L 216.056397 -31.55072 
L 219.285053 -31.2517 
L 222.409559 -31.671204 
L 225.638215 -31.816881 
L 228.762721 -32.423684 
L 231.991377 -33.405083 
L 235.220033 -31.531004 
L 238.344539 -33.023915 
L 241.573195 -31.419283 
L 244.697701 -30.780716 
L 247.926357 -32.878238 
L 251.155013 -32.199145 
L 254.175369 -34.584735 
L 257.404025 -36.84984 
L 260.528531 -38.105068 
L 263.757187 -37.407354 
L 266.881693 -39.099611 
L 270.110349 -37.573842 
L 273.339006 -35.760005 
L 276.463511 -35.899109 
L 279.692168 -35.382122 
L 282.816674 -37.570556 
L 286.04533 -38.202551 
L 289.273986 -36.6023 
L 292.190191 -40.484086 
L 295.418847 -37.912293 
L 298.543353 -38.07659 
L 301.772009 -39.229954 
L 304.896515 -40.360316 
L 308.125172 -38.739254 
L 311.353828 -38.369038 
L 314.478334 -38.500476 
L 317.70699 -38.786352 
L 320.831496 -40.109489 
L 324.060152 -41.610067 
L 327.288808 -43.733877 
L 330.205013 -46.773368 
L 333.43367 -53.438343 
L 336.558175 -47.352789 
L 339.786832 -49.342971 
L 342.911338 -52.081251 
L 346.139994 -55.310231 
L 349.36865 -52.824968 
L 352.493156 -55.898414 
L 355.721812 -54.738479 
L 358.846318 -58.714462 
L 362.074974 -63.559027 
L 365.30363 -58.561118 
L 368.219836 -65.173518 
L 371.448492 -60.281853 
L 374.572998 -65.254571 
L 377.801654 -65.458299 
L 380.92616 -64.856972 
L 384.154816 -70.925002 
L 387.383472 -66.769387 
L 390.507978 -67.680687 
L 393.736634 -62.801071 
L 396.86114 -64.944597 
L 400.089796 -68.30611 
L 403.318452 -72.896564 
L 406.338808 -87.191483 
L 409.567464 -90.267119 
L 412.69197 -98.309996 
L 415.920626 -94.90029 
L 419.045132 -99.992396 
L 422.273788 -103.326526 
L 425.502444 -101.653985 
L 428.62695 -107.478855 
L 431.855606 -100.805118 
L 434.980112 -109.276262 
L 438.208768 -209.62 
L 441.437424 -121.481325 
L 444.35363 -135.387409 
L 447.582286 -135.189157 
L 450.706792 -137.34035 
L 453.935448 -143.625251 
L 457.059954 -157.70768 
L 460.28861 -139.444445 
L 463.517266 -109.642096 
L 466.641772 -103.621165 
L 469.870428 -105.777835 
L 472.994934 -82.09609 
L 476.223591 -44.527979 
L 479.452247 -33.453277 
L 482.368452 -43.862029 
L 485.597108 -43.227843 
L 488.721614 -38.864119 
L 491.95027 -31.577007 
L 495.074776 -23.259207 
L 495.074776 -20.2 
L 495.074776 -20.2 
L 491.95027 -20.2 
L 488.721614 -20.2 
L 485.597108 -20.2 
L 482.368452 -20.2 
L 479.452247 -20.2 
L 476.223591 -20.2 
L 472.994934 -20.2 
L 469.870428 -20.2 
L 466.641772 -20.2 
L 463.517266 -20.2 
L 460.28861 -20.2 
L 457.059954 -20.2 
L 453.935448 -20.2 
L 450.706792 -20.2 
L 447.582286 -20.2 
L 444.35363 -20.2 
L 441.437424 -20.2 
L 438.208768 -20.2 
L 434.980112 -20.2 
L 431.855606 -20.2 
L 428.62695 -20.2 
L 425.502444 -20.2 
L 422.273788 -20.2 
L 419.045132 -20.2 
L 415.920626 -20.2 
L 412.69197 -20.2 
L 409.567464 -20.2 
L 406.338808 -20.2 
L 403.318452 -20.2 
L 400.089796 -20.2 
L 396.86114 -20.2 
L 393.736634 -20.2 
L 390.507978 -20.2 
L 387.383472 -20.2 
L 384.154816 -20.2 
L 380.92616 -20.2 
L 377.801654 -20.2 
L 374.572998 -20.2 
L 371.448492 -20.2 
L 368.219836 -20.2 
L 365.30363 -20.2 
L 362.074974 -20.2 
L 358.846318 -20.2 
L 355.721812 -20.2 
L 352.493156 -20.2 
L 349.36865 -20.2 
L 346.139994 -20.2 
L 342.911338 -20.2 
L 339.786832 -20.2 
L 336.558175 -20.2 
L 333.43367 -20.2 
L 330.205013 -20.2 
L 327.288808 -20.2 
L 324.060152 -20.2 
L 320.831496 -20.2 
L 317.70699 -20.2 
L 314.478334 -20.2 
L 311.353828 -20.2 
L 308.125172 -20.2 
L 304.896515 -20.2 
L 301.772009 -20.2 
L 298.543353 -20.2 
L 295.418847 -20.2 
L 292.190191 -20.2 
L 289.273986 -20.2 
L 286.04533 -20.2 
L 282.816674 -20.2 
L 279.692168 -20.2 
L 276.463511 -20.2 
L 273.339006 -20.2 
L 270.110349 -20.2 
L 266.881693 -20.2 
L 263.757187 -20.2 
L 260.528531 -20.2 
L 257.404025 -20.2 
L 254.175369 -20.2 
L 251.155013 -20.2 
L 247.926357 -20.2 
L 244.697701 -20.2 
L 241.573195 -20.2 
L 238.344539 -20.2 
L 235.220033 -20.2 
L 231.991377 -20.2 
L 228.762721 -20.2 
L 225.638215 -20.2 
L 222.409559 -20.2 
L 219.285053 -20.2 
L 216.056397 -20.2 
L 213.140191 -20.2 
L 209.911535 -20.2 
L 206.682879 -20.2 
L 203.558373 -20.2 
L 200.329717 -20.2 
L 197.205211 -20.2 
L 193.976555 -20.2 
L 190.747899 -20.2 
L 187.623393 -20.2 
L 184.394737 -20.2 
L 181.270231 -20.2 
L 178.041575 -20.2 
L 175.125369 -20.2 
L 171.896713 -20.2 
L 168.668057 -20.2 
L 165.543551 -20.2 
L 162.314895 -20.2 
L 159.190389 -20.2 
L 155.961733 -20.2 
L 152.733077 -20.2 
L 149.608571 -20.2 
L 146.379915 -20.2 
L 143.255409 -20.2 
L 140.026753 -20.2 
L 137.110547 -20.2 
L 133.881891 -20.2 
L 130.653235 -20.2 
L 127.528729 -20.2 
L 124.300073 -20.2 
L 121.175567 -20.2 
L 117.946911 -20.2 
L 114.718255 -20.2 
L 111.593749 -20.2 
L 108.365092 -20.2 
L 105.240587 -20.2 
L 102.01193 -20.2 
L 98.991575 -20.2 
L 95.762919 -20.2 
L 92.534262 -20.2 
L 89.409757 -20.2 
L 86.1811 -20.2 
L 83.056594 -20.2 
L 79.827938 -20.2 
L 76.599282 -20.2 
L 73.474776 -20.2 
L 70.24612 -20.2 
L 67.121614 -20.2 
L 63.892958 -20.2 
z
" style="stroke: #2a78d6; stroke-opacity: 0.1"/>
    </defs>
    <g clip-path="url(#p2b52afac71)">
     <use xlink:href="#m5e91a28c6b" x="0" y="272.682359" style="fill: #2a78d6; fill-opacity: 0.1; stroke: #2a78d6; stroke-opacity: 0.1"/>
    </g>
   </g>
   <g id="patch_4">
    <path d="M 42.333867 252.482359 
L 516.633867 252.482359 
" style="fill: none; stroke: #e6e5e1; stroke-width: 0.8; stroke-linejoin: miter; stroke-linecap: square"/>
   </g>
   <g id="line2d_25">
    <path d="M 63.892958 249.880993 
L 67.121614 246.593961 
L 73.474776 246.015636 
L 76.599282 245.223726 
L 79.827938 245.415405 
L 83.056594 246.174457 
L 86.1811 245.627896 
L 89.409757 246.856836 
L 92.534262 246.794403 
L 95.762919 246.294941 
L 98.991575 246.372708 
L 102.01193 245.46579 
L 105.240587 245.67828 
L 108.365092 245.700186 
L 114.718255 245.296016 
L 117.946911 244.720977 
L 121.175567 244.285043 
L 124.300073 244.22261 
L 127.528729 245.757143 
L 130.653235 245.269729 
L 133.881891 242.106467 
L 137.110547 244.096649 
L 140.026753 243.213828 
L 143.255409 243.129489 
L 146.379915 241.862213 
L 149.608571 242.424108 
L 152.733077 241.505141 
L 155.961733 241.184214 
L 159.190389 237.588305 
L 162.314895 241.58948 
L 165.543551 242.420822 
L 168.668057 242.366056 
L 171.896713 239.924605 
L 175.125369 240.972819 
L 178.041575 240.281677 
L 181.270231 240.804141 
L 184.394737 241.103161 
L 187.623393 242.582928 
L 190.747899 242.085656 
L 193.976555 241.712155 
L 197.205211 243.348551 
L 200.329717 241.475567 
L 203.558373 242.810753 
L 209.911535 243.139347 
L 213.140191 241.957505 
L 216.056397 241.131639 
L 219.285053 241.43066 
L 222.409559 241.011155 
L 225.638215 240.865479 
L 228.762721 240.258676 
L 231.991377 239.277276 
L 235.220033 241.151355 
L 238.344539 239.658445 
L 241.573195 241.263077 
L 244.697701 241.901644 
L 247.926357 239.804121 
L 251.155013 240.483215 
L 254.175369 238.097625 
L 257.404025 235.832519 
L 260.528531 234.577291 
L 263.757187 235.275005 
L 266.881693 233.582748 
L 270.110349 235.108518 
L 273.339006 236.922355 
L 276.463511 236.78325 
L 279.692168 237.300237 
L 282.816674 235.111804 
L 286.04533 234.479809 
L 289.273986 236.08006 
L 292.190191 232.198273 
L 295.418847 234.770066 
L 298.543353 234.60577 
L 304.896515 232.322044 
L 308.125172 233.943106 
L 311.353828 234.313321 
L 314.478334 234.181884 
L 317.70699 233.896007 
L 320.831496 232.57287 
L 324.060152 231.072292 
L 327.288808 228.948482 
L 330.205013 225.908991 
L 333.43367 219.244016 
L 336.558175 225.329571 
L 339.786832 223.339389 
L 342.911338 220.601108 
L 346.139994 217.372128 
L 349.36865 219.857391 
L 352.493156 216.783945 
L 355.721812 217.943881 
L 358.846318 213.967898 
L 362.074974 209.123332 
L 365.30363 214.121241 
L 368.219836 207.508842 
L 371.448492 212.400506 
L 374.572998 207.427789 
L 377.801654 207.224061 
L 380.92616 207.825387 
L 384.154816 201.757358 
L 387.383472 205.912972 
L 390.507978 205.001672 
L 393.736634 209.881288 
L 396.86114 207.737762 
L 400.089796 204.376249 
L 403.318452 199.785796 
L 406.338808 185.490877 
L 409.567464 182.41524 
L 412.69197 174.372363 
L 415.920626 177.78207 
L 419.045132 172.689963 
L 422.273788 169.355833 
L 425.502444 171.028375 
L 428.62695 165.203505 
L 431.855606 171.877242 
L 434.980112 163.406097 
L 438.208768 63.062359 
L 441.437424 151.201034 
L 444.35363 137.294951 
L 447.582286 137.493202 
L 450.706792 135.342009 
L 453.935448 129.057108 
L 457.059954 114.974679 
L 460.28861 133.237915 
L 463.517266 163.040263 
L 466.641772 169.061194 
L 469.870428 166.904525 
L 472.994934 190.586269 
L 476.223591 228.154381 
L 479.452247 239.229082 
L 482.368452 228.820331 
L 485.597108 229.454516 
L 488.721614 233.81824 
L 491.95027 241.105352 
L 495.074776 249.423152 
L 495.074776 249.423152 
" clip-path="url(#p2b52afac71)" style="fill: none; stroke: #2a78d6; stroke-width: 2; stroke-linecap: round"/>
   </g>
   <g id="text_17">
    <!-- régimen 2023+ -->
    <g style="fill: #52514e" transform="translate(288.427005 91.201819) scale(0.085 -0.085)">
     <defs>
      <path id="DejaVuSans-ab" d="M 3597 1894 
L 3597 1613 
L 953 1613 
Q 991 1019 1311 708 
Q 1631 397 2203 397 
Q 2534 397 2845 478 
Q 3156 559 3463 722 
L 3463 178 
Q 3153 47 2828 -22 
Q 2503 -91 2169 -91 
Q 1331 -91 842 396 
Q 353 884 353 1716 
Q 353 2575 817 3079 
Q 1281 3584 2069 3584 
Q 2775 3584 3186 3129 
Q 3597 2675 3597 1894 
z
M 3022 2063 
Q 3016 2534 2758 2815 
Q 2500 3097 2075 3097 
Q 1594 3097 1305 2825 
Q 1016 2553 972 2059 
L 3022 2063 
z
M 2468 5119 
L 3090 5119 
L 2072 3944 
L 1593 3944 
L 2468 5119 
z
" transform="scale(0.015625)"/>
      <path id="DejaVuSans-4a" d="M 2906 1791 
Q 2906 2416 2648 2759 
Q 2391 3103 1925 3103 
Q 1463 3103 1205 2759 
Q 947 2416 947 1791 
Q 947 1169 1205 825 
Q 1463 481 1925 481 
Q 2391 481 2648 825 
Q 2906 1169 2906 1791 
z
M 3481 434 
Q 3481 -459 3084 -895 
Q 2688 -1331 1869 -1331 
Q 1566 -1331 1297 -1286 
Q 1028 -1241 775 -1147 
L 775 -588 
Q 1028 -725 1275 -790 
Q 1522 -856 1778 -856 
Q 2344 -856 2625 -561 
Q 2906 -266 2906 331 
L 2906 616 
Q 2728 306 2450 153 
Q 2172 0 1784 0 
Q 1141 0 747 490 
Q 353 981 353 1791 
Q 353 2603 747 3093 
Q 1141 3584 1784 3584 
Q 2172 3584 2450 3431 
Q 2728 3278 2906 2969 
L 2906 3500 
L 3481 3500 
L 3481 434 
z
" transform="scale(0.015625)"/>
      <path id="DejaVuSans-51" d="M 3513 2113 
L 3513 0 
L 2938 0 
L 2938 2094 
Q 2938 2591 2744 2837 
Q 2550 3084 2163 3084 
Q 1697 3084 1428 2787 
Q 1159 2491 1159 1978 
L 1159 0 
L 581 0 
L 581 3500 
L 1159 3500 
L 1159 2956 
Q 1366 3272 1645 3428 
Q 1925 3584 2291 3584 
Q 2894 3584 3203 3211 
Q 3513 2838 3513 2113 
z
" transform="scale(0.015625)"/>
      <path id="DejaVuSans-16" d="M 2597 2516 
Q 3050 2419 3304 2112 
Q 3559 1806 3559 1356 
Q 3559 666 3084 287 
Q 2609 -91 1734 -91 
Q 1441 -91 1130 -33 
Q 819 25 488 141 
L 488 750 
Q 750 597 1062 519 
Q 1375 441 1716 441 
Q 2309 441 2620 675 
Q 2931 909 2931 1356 
Q 2931 1769 2642 2001 
Q 2353 2234 1838 2234 
L 1294 2234 
L 1294 2753 
L 1863 2753 
Q 2328 2753 2575 2939 
Q 2822 3125 2822 3475 
Q 2822 3834 2567 4026 
Q 2313 4219 1838 4219 
Q 1578 4219 1281 4162 
Q 984 4106 628 3988 
L 628 4550 
Q 988 4650 1302 4700 
Q 1616 4750 1894 4750 
Q 2613 4750 3031 4423 
Q 3450 4097 3450 3541 
Q 3450 3153 3228 2886 
Q 3006 2619 2597 2516 
z
" transform="scale(0.015625)"/>
      <path id="DejaVuSans-e" d="M 2944 4013 
L 2944 2272 
L 4684 2272 
L 4684 1741 
L 2944 1741 
L 2944 0 
L 2419 0 
L 2419 1741 
L 678 1741 
L 678 2272 
L 2419 2272 
L 2419 4013 
L 2944 4013 
z
" transform="scale(0.015625)"/>
     </defs>
     <use xlink:href="#DejaVuSans-55"/>
     <use xlink:href="#DejaVuSans-ab" transform="translate(38.90625 0)"/>
     <use xlink:href="#DejaVuSans-4a" transform="translate(100.4375 0)"/>
     <use xlink:href="#DejaVuSans-4c" transform="translate(163.921875 0)"/>
     <use xlink:href="#DejaVuSans-50" transform="translate(191.703125 0)"/>
     <use xlink:href="#DejaVuSans-48" transform="translate(289.109375 0)"/>
     <use xlink:href="#DejaVuSans-51" transform="translate(350.640625 0)"/>
     <use xlink:href="#DejaVuSans-3" transform="translate(414.015625 0)"/>
     <use xlink:href="#DejaVuSans-15" transform="translate(445.796875 0)"/>
     <use xlink:href="#DejaVuSans-13" transform="translate(509.421875 0)"/>
     <use xlink:href="#DejaVuSans-15" transform="translate(573.046875 0)"/>
     <use xlink:href="#DejaVuSans-16" transform="translate(636.671875 0)"/>
     <use xlink:href="#DejaVuSans-e" transform="translate(700.296875 0)"/>
    </g>
   </g>
   <g id="text_18">
    <!-- pico 173 mil -->
    <g style="fill: #52514e" transform="translate(370.986425 47.967877) scale(0.085 -0.085)">
     <defs>
      <path id="DejaVuSans-Bold-53" d="M 1656 506 
L 1656 -1331 
L 538 -1331 
L 538 3500 
L 1656 3500 
L 1656 2988 
Q 1888 3294 2169 3439 
Q 2450 3584 2816 3584 
Q 3463 3584 3878 3070 
Q 4294 2556 4294 1747 
Q 4294 938 3878 423 
Q 3463 -91 2816 -91 
Q 2450 -91 2169 54 
Q 1888 200 1656 506 
z
M 2400 2772 
Q 2041 2772 1848 2508 
Q 1656 2244 1656 1747 
Q 1656 1250 1848 986 
Q 2041 722 2400 722 
Q 2759 722 2948 984 
Q 3138 1247 3138 1747 
Q 3138 2247 2948 2509 
Q 2759 2772 2400 2772 
z
" transform="scale(0.015625)"/>
      <path id="DejaVuSans-Bold-4c" d="M 538 3500 
L 1656 3500 
L 1656 0 
L 538 0 
L 538 3500 
z
M 538 4863 
L 1656 4863 
L 1656 3950 
L 538 3950 
L 538 4863 
z
" transform="scale(0.015625)"/>
      <path id="DejaVuSans-Bold-46" d="M 3366 3391 
L 3366 2478 
Q 3138 2634 2908 2709 
Q 2678 2784 2431 2784 
Q 1963 2784 1702 2511 
Q 1441 2238 1441 1747 
Q 1441 1256 1702 982 
Q 1963 709 2431 709 
Q 2694 709 2930 787 
Q 3166 866 3366 1019 
L 3366 103 
Q 3103 6 2833 -42 
Q 2563 -91 2291 -91 
Q 1344 -91 809 395 
Q 275 881 275 1747 
Q 275 2613 809 3098 
Q 1344 3584 2291 3584 
Q 2566 3584 2833 3536 
Q 3100 3488 3366 3391 
z
" transform="scale(0.015625)"/>
      <path id="DejaVuSans-Bold-52" d="M 2203 2784 
Q 1831 2784 1636 2517 
Q 1441 2250 1441 1747 
Q 1441 1244 1636 976 
Q 1831 709 2203 709 
Q 2569 709 2762 976 
Q 2956 1244 2956 1747 
Q 2956 2250 2762 2517 
Q 2569 2784 2203 2784 
z
M 2203 3584 
Q 3106 3584 3614 3096 
Q 4122 2609 4122 1747 
Q 4122 884 3614 396 
Q 3106 -91 2203 -91 
Q 1297 -91 786 396 
Q 275 884 275 1747 
Q 275 2609 786 3096 
Q 1297 3584 2203 3584 
z
" transform="scale(0.015625)"/>
      <path id="DejaVuSans-Bold-3" transform="scale(0.015625)"/>
      <path id="DejaVuSans-Bold-14" d="M 750 831 
L 1813 831 
L 1813 3847 
L 722 3622 
L 722 4441 
L 1806 4666 
L 2950 4666 
L 2950 831 
L 4013 831 
L 4013 0 
L 750 0 
L 750 831 
z
" transform="scale(0.015625)"/>
      <path id="DejaVuSans-Bold-1a" d="M 428 4666 
L 3944 4666 
L 3944 3988 
L 2125 0 
L 953 0 
L 2675 3781 
L 428 3781 
L 428 4666 
z
" transform="scale(0.015625)"/>
      <path id="DejaVuSans-Bold-16" d="M 2981 2516 
Q 3453 2394 3698 2092 
Q 3944 1791 3944 1325 
Q 3944 631 3412 270 
Q 2881 -91 1863 -91 
Q 1503 -91 1142 -33 
Q 781 25 428 141 
L 428 1069 
Q 766 900 1098 814 
Q 1431 728 1753 728 
Q 2231 728 2486 893 
Q 2741 1059 2741 1369 
Q 2741 1688 2480 1852 
Q 2219 2016 1709 2016 
L 1228 2016 
L 1228 2791 
L 1734 2791 
Q 2188 2791 2409 2933 
Q 2631 3075 2631 3366 
Q 2631 3634 2415 3781 
Q 2200 3928 1806 3928 
Q 1516 3928 1219 3862 
Q 922 3797 628 3669 
L 628 4550 
Q 984 4650 1334 4700 
Q 1684 4750 2022 4750 
Q 2931 4750 3382 4451 
Q 3834 4153 3834 3553 
Q 3834 3144 3618 2883 
Q 3403 2622 2981 2516 
z
" transform="scale(0.015625)"/>
      <path id="DejaVuSans-Bold-50" d="M 3781 2919 
Q 3994 3244 4286 3414 
Q 4578 3584 4928 3584 
Q 5531 3584 5847 3212 
Q 6163 2841 6163 2131 
L 6163 0 
L 5038 0 
L 5038 1825 
Q 5041 1866 5042 1909 
Q 5044 1953 5044 2034 
Q 5044 2406 4934 2573 
Q 4825 2741 4581 2741 
Q 4263 2741 4089 2478 
Q 3916 2216 3909 1719 
L 3909 0 
L 2784 0 
L 2784 1825 
Q 2784 2406 2684 2573 
Q 2584 2741 2328 2741 
Q 2006 2741 1831 2477 
Q 1656 2213 1656 1722 
L 1656 0 
L 531 0 
L 531 3500 
L 1656 3500 
L 1656 2988 
Q 1863 3284 2130 3434 
Q 2397 3584 2719 3584 
Q 3081 3584 3359 3409 
Q 3638 3234 3781 2919 
z
" transform="scale(0.015625)"/>
      <path id="DejaVuSans-Bold-4f" d="M 538 4863 
L 1656 4863 
L 1656 0 
L 538 0 
L 538 4863 
z
" transform="scale(0.015625)"/>
     </defs>
     <use xlink:href="#DejaVuSans-Bold-53"/>
     <use xlink:href="#DejaVuSans-Bold-4c" transform="translate(71.578125 0)"/>
     <use xlink:href="#DejaVuSans-Bold-46" transform="translate(105.859375 0)"/>
     <use xlink:href="#DejaVuSans-Bold-52" transform="translate(165.140625 0)"/>
     <use xlink:href="#DejaVuSans-Bold-3" transform="translate(233.84375 0)"/>
     <use xlink:href="#DejaVuSans-Bold-14" transform="translate(268.65625 0)"/>
     <use xlink:href="#DejaVuSans-Bold-1a" transform="translate(338.234375 0)"/>
     <use xlink:href="#DejaVuSans-Bold-16" transform="translate(407.8125 0)"/>
     <use xlink:href="#DejaVuSans-Bold-3" transform="translate(477.390625 0)"/>
     <use xlink:href="#DejaVuSans-Bold-50" transform="translate(512.203125 0)"/>
     <use xlink:href="#DejaVuSans-Bold-4c" transform="translate(616.40625 0)"/>
     <use xlink:href="#DejaVuSans-Bold-4f" transform="translate(650.6875 0)"/>
    </g>
    <!-- 2025-01 -->
    <g style="fill: #52514e" transform="translate(390.196425 58.169537) scale(0.085 -0.085)">
     <defs>
      <path id="DejaVuSans-Bold-15" d="M 1844 884 
L 3897 884 
L 3897 0 
L 506 0 
L 506 884 
L 2209 2388 
Q 2438 2594 2547 2791 
Q 2656 2988 2656 3200 
Q 2656 3528 2436 3728 
Q 2216 3928 1850 3928 
Q 1569 3928 1234 3808 
Q 900 3688 519 3450 
L 519 4475 
Q 925 4609 1322 4679 
Q 1719 4750 2100 4750 
Q 2938 4750 3402 4381 
Q 3866 4013 3866 3353 
Q 3866 2972 3669 2642 
Q 3472 2313 2841 1759 
L 1844 884 
z
" transform="scale(0.015625)"/>
      <path id="DejaVuSans-Bold-13" d="M 2944 2338 
Q 2944 3213 2780 3570 
Q 2616 3928 2228 3928 
Q 1841 3928 1675 3570 
Q 1509 3213 1509 2338 
Q 1509 1453 1675 1090 
Q 1841 728 2228 728 
Q 2613 728 2778 1090 
Q 2944 1453 2944 2338 
z
M 4147 2328 
Q 4147 1169 3647 539 
Q 3147 -91 2228 -91 
Q 1306 -91 806 539 
Q 306 1169 306 2328 
Q 306 3491 806 4120 
Q 1306 4750 2228 4750 
Q 3147 4750 3647 4120 
Q 4147 3491 4147 2328 
z
" transform="scale(0.015625)"/>
      <path id="DejaVuSans-Bold-18" d="M 678 4666 
L 3669 4666 
L 3669 3781 
L 1638 3781 
L 1638 3059 
Q 1775 3097 1914 3117 
Q 2053 3138 2203 3138 
Q 3056 3138 3531 2711 
Q 4006 2284 4006 1522 
Q 4006 766 3489 337 
Q 2972 -91 2053 -91 
Q 1656 -91 1267 -14 
Q 878 63 494 219 
L 494 1166 
Q 875 947 1217 837 
Q 1559 728 1863 728 
Q 2300 728 2551 942 
Q 2803 1156 2803 1522 
Q 2803 1891 2551 2103 
Q 2300 2316 1863 2316 
Q 1603 2316 1309 2248 
Q 1016 2181 678 2041 
L 678 4666 
z
" transform="scale(0.015625)"/>
      <path id="DejaVuSans-Bold-10" d="M 347 2297 
L 2309 2297 
L 2309 1388 
L 347 1388 
L 347 2297 
z
" transform="scale(0.015625)"/>
     </defs>
     <use xlink:href="#DejaVuSans-Bold-15"/>
     <use xlink:href="#DejaVuSans-Bold-13" transform="translate(69.578125 0)"/>
     <use xlink:href="#DejaVuSans-Bold-15" transform="translate(139.15625 0)"/>
     <use xlink:href="#DejaVuSans-Bold-18" transform="translate(208.734375 0)"/>
     <use xlink:href="#DejaVuSans-Bold-10" transform="translate(278.3125 0)"/>
     <use xlink:href="#DejaVuSans-Bold-13" transform="translate(319.8125 0)"/>
     <use xlink:href="#DejaVuSans-Bold-14" transform="translate(389.390625 0)"/>
    </g>
   </g>
   <g id="patch_5">
    <path d="M 449.32705 208.23332 
Q 461.568719 217.300175 473.810388 226.36703 
" style="fill: none; stroke: #d03b3b; stroke-width: 0.9; stroke-linecap: round"/>
   </g>
   <g id="text_19">
    <!-- quiebre 2026-01 -->
    <g style="fill: #d03b3b" transform="translate(392.396716 191.952721) scale(0.085 -0.085)">
     <defs>
      <path id="DejaVuSans-Bold-54" d="M 2181 2772 
Q 1825 2772 1636 2509 
Q 1447 2247 1447 1747 
Q 1447 1247 1636 984 
Q 1825 722 2181 722 
Q 2541 722 2730 984 
Q 2919 1247 2919 1747 
Q 2919 2247 2730 2509 
Q 2541 2772 2181 2772 
z
M 2919 506 
Q 2688 197 2409 53 
Q 2131 -91 1766 -91 
Q 1119 -91 703 423 
Q 288 938 288 1747 
Q 288 2556 703 3067 
Q 1119 3578 1766 3578 
Q 2131 3578 2409 3434 
Q 2688 3291 2919 2981 
L 2919 3500 
L 4044 3500 
L 4044 -1331 
L 2919 -1331 
L 2919 506 
z
" transform="scale(0.015625)"/>
      <path id="DejaVuSans-Bold-58" d="M 500 1363 
L 500 3500 
L 1625 3500 
L 1625 3150 
Q 1625 2866 1622 2436 
Q 1619 2006 1619 1863 
Q 1619 1441 1641 1255 
Q 1663 1069 1716 984 
Q 1784 875 1895 815 
Q 2006 756 2150 756 
Q 2500 756 2700 1025 
Q 2900 1294 2900 1772 
L 2900 3500 
L 4019 3500 
L 4019 0 
L 2900 0 
L 2900 506 
Q 2647 200 2364 54 
Q 2081 -91 1741 -91 
Q 1134 -91 817 281 
Q 500 653 500 1363 
z
" transform="scale(0.015625)"/>
      <path id="DejaVuSans-Bold-48" d="M 4031 1759 
L 4031 1441 
L 1416 1441 
Q 1456 1047 1700 850 
Q 1944 653 2381 653 
Q 2734 653 3104 758 
Q 3475 863 3866 1075 
L 3866 213 
Q 3469 63 3072 -14 
Q 2675 -91 2278 -91 
Q 1328 -91 801 392 
Q 275 875 275 1747 
Q 275 2603 792 3093 
Q 1309 3584 2216 3584 
Q 3041 3584 3536 3087 
Q 4031 2591 4031 1759 
z
M 2881 2131 
Q 2881 2450 2695 2645 
Q 2509 2841 2209 2841 
Q 1884 2841 1681 2658 
Q 1478 2475 1428 2131 
L 2881 2131 
z
" transform="scale(0.015625)"/>
      <path id="DejaVuSans-Bold-45" d="M 2400 722 
Q 2759 722 2948 984 
Q 3138 1247 3138 1747 
Q 3138 2247 2948 2509 
Q 2759 2772 2400 2772 
Q 2041 2772 1848 2508 
Q 1656 2244 1656 1747 
Q 1656 1250 1848 986 
Q 2041 722 2400 722 
z
M 1656 2988 
Q 1888 3294 2169 3439 
Q 2450 3584 2816 3584 
Q 3463 3584 3878 3070 
Q 4294 2556 4294 1747 
Q 4294 938 3878 423 
Q 3463 -91 2816 -91 
Q 2450 -91 2169 54 
Q 1888 200 1656 506 
L 1656 0 
L 538 0 
L 538 4863 
L 1656 4863 
L 1656 2988 
z
" transform="scale(0.015625)"/>
      <path id="DejaVuSans-Bold-55" d="M 3138 2547 
Q 2991 2616 2845 2648 
Q 2700 2681 2553 2681 
Q 2122 2681 1889 2404 
Q 1656 2128 1656 1613 
L 1656 0 
L 538 0 
L 538 3500 
L 1656 3500 
L 1656 2925 
Q 1872 3269 2151 3426 
Q 2431 3584 2822 3584 
Q 2878 3584 2943 3579 
Q 3009 3575 3134 3559 
L 3138 2547 
z
" transform="scale(0.015625)"/>
      <path id="DejaVuSans-Bold-19" d="M 2316 2303 
Q 2000 2303 1842 2098 
Q 1684 1894 1684 1484 
Q 1684 1075 1842 870 
Q 2000 666 2316 666 
Q 2634 666 2792 870 
Q 2950 1075 2950 1484 
Q 2950 1894 2792 2098 
Q 2634 2303 2316 2303 
z
M 3803 4544 
L 3803 3681 
Q 3506 3822 3243 3889 
Q 2981 3956 2731 3956 
Q 2194 3956 1894 3657 
Q 1594 3359 1544 2772 
Q 1750 2925 1990 3001 
Q 2231 3078 2516 3078 
Q 3231 3078 3670 2659 
Q 4109 2241 4109 1563 
Q 4109 813 3618 361 
Q 3128 -91 2303 -91 
Q 1394 -91 895 523 
Q 397 1138 397 2266 
Q 397 3422 980 4083 
Q 1563 4744 2578 4744 
Q 2900 4744 3203 4694 
Q 3506 4644 3803 4544 
z
" transform="scale(0.015625)"/>
     </defs>
     <use xlink:href="#DejaVuSans-Bold-54"/>
     <use xlink:href="#DejaVuSans-Bold-58" transform="translate(71.578125 0)"/>
     <use xlink:href="#DejaVuSans-Bold-4c" transform="translate(142.765625 0)"/>
     <use xlink:href="#DejaVuSans-Bold-48" transform="translate(177.046875 0)"/>
     <use xlink:href="#DejaVuSans-Bold-45" transform="translate(244.875 0)"/>
     <use xlink:href="#DejaVuSans-Bold-55" transform="translate(316.453125 0)"/>
     <use xlink:href="#DejaVuSans-Bold-48" transform="translate(365.765625 0)"/>
     <use xlink:href="#DejaVuSans-Bold-3" transform="translate(433.59375 0)"/>
     <use xlink:href="#DejaVuSans-Bold-15" transform="translate(468.40625 0)"/>
     <use xlink:href="#DejaVuSans-Bold-13" transform="translate(537.984375 0)"/>
     <use xlink:href="#DejaVuSans-Bold-15" transform="translate(607.5625 0)"/>
     <use xlink:href="#DejaVuSans-Bold-19" transform="translate(677.140625 0)"/>
     <use xlink:href="#DejaVuSans-Bold-10" transform="translate(746.71875 0)"/>
     <use xlink:href="#DejaVuSans-Bold-13" transform="translate(788.21875 0)"/>
     <use xlink:href="#DejaVuSans-Bold-14" transform="translate(857.796875 0)"/>
    </g>
    <!-- −61% en un mes -->
    <g style="fill: #d03b3b" transform="translate(391.278434 202.154381) scale(0.085 -0.085)">
     <defs>
      <path id="DejaVuSans-Bold-c9c" d="M 678 2375 
L 4684 2375 
L 4684 1638 
L 678 1638 
L 678 2375 
z
" transform="scale(0.015625)"/>
      <path id="DejaVuSans-Bold-8" d="M 4959 1925 
Q 4738 1925 4616 1733 
Q 4494 1541 4494 1184 
Q 4494 825 4614 633 
Q 4734 441 4959 441 
Q 5184 441 5303 633 
Q 5422 825 5422 1184 
Q 5422 1541 5301 1733 
Q 5181 1925 4959 1925 
z
M 4959 2450 
Q 5541 2450 5875 2112 
Q 6209 1775 6209 1184 
Q 6209 594 5875 251 
Q 5541 -91 4959 -91 
Q 4378 -91 4042 251 
Q 3706 594 3706 1184 
Q 3706 1772 4042 2111 
Q 4378 2450 4959 2450 
z
M 2094 -91 
L 1403 -91 
L 4319 4750 
L 5013 4750 
L 2094 -91 
z
M 1453 4750 
Q 2034 4750 2367 4411 
Q 2700 4072 2700 3481 
Q 2700 2891 2367 2550 
Q 2034 2209 1453 2209 
Q 872 2209 539 2550 
Q 206 2891 206 3481 
Q 206 4072 539 4411 
Q 872 4750 1453 4750 
z
M 1453 4225 
Q 1228 4225 1106 4031 
Q 984 3838 984 3481 
Q 984 3122 1106 2926 
Q 1228 2731 1453 2731 
Q 1678 2731 1798 2926 
Q 1919 3122 1919 3481 
Q 1919 3838 1797 4031 
Q 1675 4225 1453 4225 
z
" transform="scale(0.015625)"/>
      <path id="DejaVuSans-Bold-51" d="M 4056 2131 
L 4056 0 
L 2931 0 
L 2931 347 
L 2931 1631 
Q 2931 2084 2911 2256 
Q 2891 2428 2841 2509 
Q 2775 2619 2662 2680 
Q 2550 2741 2406 2741 
Q 2056 2741 1856 2470 
Q 1656 2200 1656 1722 
L 1656 0 
L 538 0 
L 538 3500 
L 1656 3500 
L 1656 2988 
Q 1909 3294 2193 3439 
Q 2478 3584 2822 3584 
Q 3428 3584 3742 3212 
Q 4056 2841 4056 2131 
z
" transform="scale(0.015625)"/>
      <path id="DejaVuSans-Bold-56" d="M 3272 3391 
L 3272 2541 
Q 2913 2691 2578 2766 
Q 2244 2841 1947 2841 
Q 1628 2841 1473 2761 
Q 1319 2681 1319 2516 
Q 1319 2381 1436 2309 
Q 1553 2238 1856 2203 
L 2053 2175 
Q 2913 2066 3209 1816 
Q 3506 1566 3506 1031 
Q 3506 472 3093 190 
Q 2681 -91 1863 -91 
Q 1516 -91 1145 -36 
Q 775 19 384 128 
L 384 978 
Q 719 816 1070 734 
Q 1422 653 1784 653 
Q 2113 653 2278 743 
Q 2444 834 2444 1013 
Q 2444 1163 2330 1236 
Q 2216 1309 1875 1350 
L 1678 1375 
Q 931 1469 631 1722 
Q 331 1975 331 2491 
Q 331 3047 712 3315 
Q 1094 3584 1881 3584 
Q 2191 3584 2531 3537 
Q 2872 3491 3272 3391 
z
" transform="scale(0.015625)"/>
     </defs>
     <use xlink:href="#DejaVuSans-Bold-c9c"/>
     <use xlink:href="#DejaVuSans-Bold-19" transform="translate(83.796875 0)"/>
     <use xlink:href="#DejaVuSans-Bold-14" transform="translate(153.375 0)"/>
     <use xlink:href="#DejaVuSans-Bold-8" transform="translate(222.953125 0)"/>
     <use xlink:href="#DejaVuSans-Bold-3" transform="translate(323.15625 0)"/>
     <use xlink:href="#DejaVuSans-Bold-48" transform="translate(357.96875 0)"/>
     <use xlink:href="#DejaVuSans-Bold-51" transform="translate(425.796875 0)"/>
     <use xlink:href="#DejaVuSans-Bold-3" transform="translate(496.984375 0)"/>
     <use xlink:href="#DejaVuSans-Bold-58" transform="translate(531.796875 0)"/>
     <use xlink:href="#DejaVuSans-Bold-51" transform="translate(602.984375 0)"/>
     <use xlink:href="#DejaVuSans-Bold-3" transform="translate(674.171875 0)"/>
     <use xlink:href="#DejaVuSans-Bold-50" transform="translate(708.984375 0)"/>
     <use xlink:href="#DejaVuSans-Bold-48" transform="translate(813.1875 0)"/>
     <use xlink:href="#DejaVuSans-Bold-56" transform="translate(881.015625 0)"/>
    </g>
   </g>
   <g id="text_20">
    <!-- 2026 -->
    <g style="fill: #d03b3b" transform="translate(474.516683 39.212124) scale(0.08 -0.08)">
     <use xlink:href="#DejaVuSans-Bold-15"/>
     <use xlink:href="#DejaVuSans-Bold-13" transform="translate(69.578125 0)"/>
     <use xlink:href="#DejaVuSans-Bold-15" transform="translate(139.15625 0)"/>
     <use xlink:href="#DejaVuSans-Bold-19" transform="translate(208.734375 0)"/>
    </g>
   </g>
   <g id="text_21">
    <!-- Crecimiento sostenido hasta 2025, quiebre abrupto en 2026 -->
    <g style="fill: #0b0b0b" transform="translate(42.333867 15.178359) scale(0.105 -0.105)">
     <defs>
      <path id="DejaVuSans-Bold-26" d="M 4288 256 
Q 3956 84 3597 -3 
Q 3238 -91 2847 -91 
Q 1681 -91 1000 561 
Q 319 1213 319 2328 
Q 319 3447 1000 4098 
Q 1681 4750 2847 4750 
Q 3238 4750 3597 4662 
Q 3956 4575 4288 4403 
L 4288 3438 
Q 3953 3666 3628 3772 
Q 3303 3878 2944 3878 
Q 2300 3878 1931 3465 
Q 1563 3053 1563 2328 
Q 1563 1606 1931 1193 
Q 2300 781 2944 781 
Q 3303 781 3628 887 
Q 3953 994 4288 1222 
L 4288 256 
z
" transform="scale(0.015625)"/>
      <path id="DejaVuSans-Bold-57" d="M 1759 4494 
L 1759 3500 
L 2913 3500 
L 2913 2700 
L 1759 2700 
L 1759 1216 
Q 1759 972 1856 886 
Q 1953 800 2241 800 
L 2816 800 
L 2816 0 
L 1856 0 
Q 1194 0 917 276 
Q 641 553 641 1216 
L 641 2700 
L 84 2700 
L 84 3500 
L 641 3500 
L 641 4494 
L 1759 4494 
z
" transform="scale(0.015625)"/>
      <path id="DejaVuSans-Bold-47" d="M 2919 2988 
L 2919 4863 
L 4044 4863 
L 4044 0 
L 2919 0 
L 2919 506 
Q 2688 197 2409 53 
Q 2131 -91 1766 -91 
Q 1119 -91 703 423 
Q 288 938 288 1747 
Q 288 2556 703 3070 
Q 1119 3584 1766 3584 
Q 2128 3584 2408 3439 
Q 2688 3294 2919 2988 
z
M 2181 722 
Q 2541 722 2730 984 
Q 2919 1247 2919 1747 
Q 2919 2247 2730 2509 
Q 2541 2772 2181 2772 
Q 1825 2772 1636 2509 
Q 1447 2247 1447 1747 
Q 1447 1247 1636 984 
Q 1825 722 2181 722 
z
" transform="scale(0.015625)"/>
      <path id="DejaVuSans-Bold-4b" d="M 4056 2131 
L 4056 0 
L 2931 0 
L 2931 347 
L 2931 1625 
Q 2931 2084 2911 2256 
Q 2891 2428 2841 2509 
Q 2775 2619 2662 2680 
Q 2550 2741 2406 2741 
Q 2056 2741 1856 2470 
Q 1656 2200 1656 1722 
L 1656 0 
L 538 0 
L 538 4863 
L 1656 4863 
L 1656 2988 
Q 1909 3294 2193 3439 
Q 2478 3584 2822 3584 
Q 3428 3584 3742 3212 
Q 4056 2841 4056 2131 
z
" transform="scale(0.015625)"/>
      <path id="DejaVuSans-Bold-44" d="M 2106 1575 
Q 1756 1575 1579 1456 
Q 1403 1338 1403 1106 
Q 1403 894 1545 773 
Q 1688 653 1941 653 
Q 2256 653 2472 879 
Q 2688 1106 2688 1447 
L 2688 1575 
L 2106 1575 
z
M 3816 1997 
L 3816 0 
L 2688 0 
L 2688 519 
Q 2463 200 2181 54 
Q 1900 -91 1497 -91 
Q 953 -91 614 226 
Q 275 544 275 1050 
Q 275 1666 698 1953 
Q 1122 2241 2028 2241 
L 2688 2241 
L 2688 2328 
Q 2688 2594 2478 2717 
Q 2269 2841 1825 2841 
Q 1466 2841 1156 2769 
Q 847 2697 581 2553 
L 581 3406 
Q 941 3494 1303 3539 
Q 1666 3584 2028 3584 
Q 2975 3584 3395 3211 
Q 3816 2838 3816 1997 
z
" transform="scale(0.015625)"/>
      <path id="DejaVuSans-Bold-f" d="M 653 1209 
L 1778 1209 
L 1778 256 
L 1006 -909 
L 341 -909 
L 653 256 
L 653 1209 
z
" transform="scale(0.015625)"/>
     </defs>
     <use xlink:href="#DejaVuSans-Bold-26"/>
     <use xlink:href="#DejaVuSans-Bold-55" transform="translate(73.390625 0)"/>
     <use xlink:href="#DejaVuSans-Bold-48" transform="translate(122.703125 0)"/>
     <use xlink:href="#DejaVuSans-Bold-46" transform="translate(190.53125 0)"/>
     <use xlink:href="#DejaVuSans-Bold-4c" transform="translate(249.8125 0)"/>
     <use xlink:href="#DejaVuSans-Bold-50" transform="translate(284.09375 0)"/>
     <use xlink:href="#DejaVuSans-Bold-4c" transform="translate(388.296875 0)"/>
     <use xlink:href="#DejaVuSans-Bold-48" transform="translate(422.578125 0)"/>
     <use xlink:href="#DejaVuSans-Bold-51" transform="translate(490.40625 0)"/>
     <use xlink:href="#DejaVuSans-Bold-57" transform="translate(561.59375 0)"/>
     <use xlink:href="#DejaVuSans-Bold-52" transform="translate(609.390625 0)"/>
     <use xlink:href="#DejaVuSans-Bold-3" transform="translate(678.09375 0)"/>
     <use xlink:href="#DejaVuSans-Bold-56" transform="translate(712.90625 0)"/>
     <use xlink:href="#DejaVuSans-Bold-52" transform="translate(772.421875 0)"/>
     <use xlink:href="#DejaVuSans-Bold-56" transform="translate(841.125 0)"/>
     <use xlink:href="#DejaVuSans-Bold-57" transform="translate(900.640625 0)"/>
     <use xlink:href="#DejaVuSans-Bold-48" transform="translate(948.4375 0)"/>
     <use xlink:href="#DejaVuSans-Bold-51" transform="translate(1016.265625 0)"/>
     <use xlink:href="#DejaVuSans-Bold-4c" transform="translate(1087.453125 0)"/>
     <use xlink:href="#DejaVuSans-Bold-47" transform="translate(1121.734375 0)"/>
     <use xlink:href="#DejaVuSans-Bold-52" transform="translate(1193.3125 0)"/>
     <use xlink:href="#DejaVuSans-Bold-3" transform="translate(1262.015625 0)"/>
     <use xlink:href="#DejaVuSans-Bold-4b" transform="translate(1296.828125 0)"/>
     <use xlink:href="#DejaVuSans-Bold-44" transform="translate(1368.015625 0)"/>
     <use xlink:href="#DejaVuSans-Bold-56" transform="translate(1435.5 0)"/>
     <use xlink:href="#DejaVuSans-Bold-57" transform="translate(1495.015625 0)"/>
     <use xlink:href="#DejaVuSans-Bold-44" transform="translate(1542.8125 0)"/>
     <use xlink:href="#DejaVuSans-Bold-3" transform="translate(1610.296875 0)"/>
     <use xlink:href="#DejaVuSans-Bold-15" transform="translate(1645.109375 0)"/>
     <use xlink:href="#DejaVuSans-Bold-13" transform="translate(1714.6875 0)"/>
     <use xlink:href="#DejaVuSans-Bold-15" transform="translate(1784.265625 0)"/>
     <use xlink:href="#DejaVuSans-Bold-18" transform="translate(1853.84375 0)"/>
     <use xlink:href="#DejaVuSans-Bold-f" transform="translate(1923.421875 0)"/>
     <use xlink:href="#DejaVuSans-Bold-3" transform="translate(1961.40625 0)"/>
     <use xlink:href="#DejaVuSans-Bold-54" transform="translate(1996.21875 0)"/>
     <use xlink:href="#DejaVuSans-Bold-58" transform="translate(2067.796875 0)"/>
     <use xlink:href="#DejaVuSans-Bold-4c" transform="translate(2138.984375 0)"/>
     <use xlink:href="#DejaVuSans-Bold-48" transform="translate(2173.265625 0)"/>
     <use xlink:href="#DejaVuSans-Bold-45" transform="translate(2241.09375 0)"/>
     <use xlink:href="#DejaVuSans-Bold-55" transform="translate(2312.671875 0)"/>
     <use xlink:href="#DejaVuSans-Bold-48" transform="translate(2361.984375 0)"/>
     <use xlink:href="#DejaVuSans-Bold-3" transform="translate(2429.8125 0)"/>
     <use xlink:href="#DejaVuSans-Bold-44" transform="translate(2464.625 0)"/>
     <use xlink:href="#DejaVuSans-Bold-45" transform="translate(2532.109375 0)"/>
     <use xlink:href="#DejaVuSans-Bold-55" transform="translate(2603.6875 0)"/>
     <use xlink:href="#DejaVuSans-Bold-58" transform="translate(2653 0)"/>
     <use xlink:href="#DejaVuSans-Bold-53" transform="translate(2724.1875 0)"/>
     <use xlink:href="#DejaVuSans-Bold-57" transform="translate(2795.765625 0)"/>
     <use xlink:href="#DejaVuSans-Bold-52" transform="translate(2843.5625 0)"/>
     <use xlink:href="#DejaVuSans-Bold-3" transform="translate(2912.265625 0)"/>
     <use xlink:href="#DejaVuSans-Bold-48" transform="translate(2947.078125 0)"/>
     <use xlink:href="#DejaVuSans-Bold-51" transform="translate(3014.90625 0)"/>
     <use xlink:href="#DejaVuSans-Bold-3" transform="translate(3086.09375 0)"/>
     <use xlink:href="#DejaVuSans-Bold-15" transform="translate(3120.90625 0)"/>
     <use xlink:href="#DejaVuSans-Bold-13" transform="translate(3190.484375 0)"/>
     <use xlink:href="#DejaVuSans-Bold-15" transform="translate(3260.0625 0)"/>
     <use xlink:href="#DejaVuSans-Bold-19" transform="translate(3329.640625 0)"/>
    </g>
   </g>
   <g id="line2d_26">
    <path d="M 362.074974 252.482359 
L 362.074974 25.178359 
" clip-path="url(#p2b52afac71)" style="fill: none; stroke-dasharray: 4,3; stroke-dashoffset: 0; stroke: #8a8880"/>
   </g>
  </g>
 </g>
 <defs>
  <clipPath id="p2b52afac71">
   <rect x="42.333867" y="25.178359" width="474.3" height="227.304"/>
  </clipPath>
 </defs>
</svg>
